<mxfile host="app.diagrams.net" modified="2024-03-28T03:39:35.029Z" agent="Mozilla/5.0 (Macintosh; Intel Mac OS X 10_15_7) AppleWebKit/537.36 (KHTML, like Gecko) Chrome/122.0.0.0 Safari/537.36" etag="5X5ZS_IPtWLvjfO3gz4m" version="24.2.0" type="device">
  <diagram name="Page-1" id="nxDZc-zZFPGR6-Q8sLsE">
    <mxGraphModel dx="1434" dy="735" grid="1" gridSize="10" guides="1" tooltips="1" connect="1" arrows="1" fold="1" page="1" pageScale="1" pageWidth="850" pageHeight="1100" math="0" shadow="0">
      <root>
        <mxCell id="0" />
        <mxCell id="1" parent="0" />
        <mxCell id="9PWasVjna_esgrm_P34Q-5" value="Handles interactions with charts, eg. updating a set of charts. Uses the FaaService internally to handle API calls." style="rounded=0;whiteSpace=wrap;html=1;align=left;verticalAlign=top;" vertex="1" parent="1">
          <mxGeometry x="220" y="120" width="620" height="410" as="geometry" />
        </mxCell>
        <mxCell id="9PWasVjna_esgrm_P34Q-6" value="FaaService" style="text;html=1;align=left;verticalAlign=middle;whiteSpace=wrap;rounded=0;" vertex="1" parent="1">
          <mxGeometry x="510" y="160" width="90" height="20" as="geometry" />
        </mxCell>
        <mxCell id="9PWasVjna_esgrm_P34Q-3" value="Wrapper for FAA API. Gets ChartEdition info, downloads charts, etc." style="rounded=0;whiteSpace=wrap;html=1;align=left;verticalAlign=top;" vertex="1" parent="1">
          <mxGeometry x="510" y="180" width="320" height="160" as="geometry" />
        </mxCell>
        <mxCell id="9PWasVjna_esgrm_P34Q-1" value="Handles file system operations (save, delete, read)" style="rounded=0;whiteSpace=wrap;html=1;align=left;verticalAlign=top;" vertex="1" parent="1">
          <mxGeometry x="230" y="185" width="270" height="45" as="geometry" />
        </mxCell>
        <mxCell id="9PWasVjna_esgrm_P34Q-2" value="FileSystem" style="text;html=1;align=left;verticalAlign=middle;whiteSpace=wrap;rounded=0;" vertex="1" parent="1">
          <mxGeometry x="230" y="160" width="60" height="25" as="geometry" />
        </mxCell>
        <mxCell id="9PWasVjna_esgrm_P34Q-7" value="Helper for calling FAA API endpoints." style="rounded=0;whiteSpace=wrap;html=1;align=left;verticalAlign=top;" vertex="1" parent="1">
          <mxGeometry x="540" y="260" width="260" height="60" as="geometry" />
        </mxCell>
        <mxCell id="9PWasVjna_esgrm_P34Q-8" value="FaaApi" style="text;html=1;align=left;verticalAlign=middle;whiteSpace=wrap;rounded=0;" vertex="1" parent="1">
          <mxGeometry x="540" y="240" width="90" height="20" as="geometry" />
        </mxCell>
        <mxCell id="9PWasVjna_esgrm_P34Q-9" value="ChartService" style="text;html=1;align=left;verticalAlign=middle;whiteSpace=wrap;rounded=0;" vertex="1" parent="1">
          <mxGeometry x="220" y="100" width="90" height="20" as="geometry" />
        </mxCell>
      </root>
    </mxGraphModel>
  </diagram>
</mxfile>
